<?xml version="1.0" standalone="no"?>
<!DOCTYPE svg PUBLIC "-//W3C//DTD SVG 20010904//EN"
 "http://www.w3.org/TR/2001/REC-SVG-20010904/DTD/svg10.dtd">
<svg version="1.0" xmlns="http://www.w3.org/2000/svg"
 width="356.000000pt" height="356.000000pt" viewBox="0 0 356.000000 356.000000"
 preserveAspectRatio="xMidYMid meet">
<metadata>
Created by potrace 1.14, written by Peter Selinger 2001-2017
</metadata>
<g transform="translate(0.000000,356.000000) scale(0.100000,-0.100000)"
fill="#000000" stroke="none">
<path d="M1629 3545 c-2 -2 -29 -6 -61 -9 -175 -19 -395 -83 -565 -167 -473
-232 -813 -654 -947 -1174 -14 -57 -27 -132 -41 -240 -7 -58 -8 -303 0 -357 3
-21 7 -53 9 -70 19 -153 75 -345 142 -486 19 -40 34 -75 34 -77 0 -11 117
-196 159 -251 222 -296 530 -516 877 -627 61 -20 124 -39 140 -42 155 -32 224
-38 409 -39 171 0 218 3 320 23 717 140 1273 686 1414 1388 136 675 -128 1375
-670 1776 -233 172 -521 295 -774 332 -23 3 -52 8 -65 11 -28 7 -375 15 -381
9z"/>
</g>
</svg>
