<?xml version="1.0" standalone="no"?>
<!DOCTYPE svg PUBLIC "-//W3C//DTD SVG 20010904//EN"
 "http://www.w3.org/TR/2001/REC-SVG-20010904/DTD/svg10.dtd">
<svg version="1.0" xmlns="http://www.w3.org/2000/svg"
 width="356.000000pt" height="356.000000pt" viewBox="0 0 356.000000 356.000000"
 preserveAspectRatio="xMidYMid meet">
<metadata>
Created by potrace 1.14, written by Peter Selinger 2001-2017
</metadata>
<g transform="translate(0.000000,356.000000) scale(0.100000,-0.100000)"
fill="#000000" stroke="none">
<path d="M1575 3540 c-27 -4 -68 -10 -90 -13 -76 -11 -248 -59 -339 -94 -425
-164 -770 -484 -966 -895 -45 -94 -113 -283 -125 -347 -10 -52 -34 -197 -40
-241 -6 -52 -7 -293 -1 -330 3 -14 7 -52 11 -85 12 -110 70 -331 112 -425 117
-259 218 -413 385 -582 246 -248 603 -440 918 -493 19 -3 42 -8 50 -10 89 -24
539 -24 579 0 4 1 28 6 54 9 129 18 383 112 536 199 498 286 830 792 889 1357
13 126 6 374 -13 475 -31 158 -62 273 -100 360 -7 17 -23 55 -36 85 -43 102
-145 269 -228 375 -56 71 -214 226 -296 290 -207 162 -519 307 -734 340 -14 3
-39 7 -56 10 -112 19 -168 23 -305 23 -85 -1 -177 -4 -205 -8z"/>
</g>
</svg>
