<svg id="Layer_1" data-name="Layer 1" xmlns="http://www.w3.org/2000/svg" xmlns:xlink="http://www.w3.org/1999/xlink" viewBox="0 0 122 23"><defs><style>.cls-1{fill:url(#linear-gradient);}.cls-2{fill:#231f20;}.cls-3{fill:url(#linear-gradient-2);}.cls-4,.cls-5,.cls-6{stroke-miterlimit:10;stroke-width:0.4329px;}.cls-4{fill:url(#linear-gradient-3);stroke:url(#linear-gradient-4);}.cls-5{fill:url(#linear-gradient-5);stroke:url(#linear-gradient-6);}.cls-6{fill:url(#linear-gradient-7);stroke:url(#linear-gradient-8);}.cls-7{font-size:8.9612px;fill:#fff;}.cls-7,.cls-9{font-family:Cinzel-Regular, Cinzel;}.cls-8{letter-spacing:-0.005em;}.cls-9{font-size:23.3908px;fill:#333;}.cls-10{letter-spacing:0.035em;}</style><linearGradient id="linear-gradient" x1="54.7787" y1="0.6273" x2="31.0924" y2="23.4616" gradientUnits="userSpaceOnUse"><stop offset="0" stop-color="#626262"/><stop offset="0.2733" stop-color="#5b5b5b"/><stop offset="0.6562" stop-color="#494949"/><stop offset="1" stop-color="#333"/></linearGradient><linearGradient id="linear-gradient-2" x1="61.1096" y1="10.4065" x2="24.8228" y2="10.4065" gradientTransform="matrix(1, -0.0005, -0.0005, 1.027, -0.026, 1.3781)" gradientUnits="userSpaceOnUse"><stop offset="0" stop-color="#333"/><stop offset="1" stop-color="#575757"/></linearGradient><linearGradient id="linear-gradient-3" x1="-53.2741" y1="12.2037" x2="-38.1279" y2="12.2037" gradientTransform="matrix(-1, 0, 0, 1, 4.8675, 0)" gradientUnits="userSpaceOnUse"><stop offset="0" stop-color="#a6a8ab"/><stop offset="0.0692" stop-color="#b8babc"/><stop offset="0.1941" stop-color="#d2d3d4"/><stop offset="0.3323" stop-color="#e6e6e7"/><stop offset="0.489" stop-color="#f4f4f5"/><stop offset="0.6796" stop-color="#fcfdfd"/><stop offset="1" stop-color="#fff"/></linearGradient><linearGradient id="linear-gradient-4" x1="-53.4905" y1="12.2037" x2="-37.9114" y2="12.2037" gradientTransform="matrix(-1, 0, 0, 1, 4.8675, 0)" gradientUnits="userSpaceOnUse"><stop offset="0" stop-color="#fff"/><stop offset="0.3602" stop-color="#fdfdfd"/><stop offset="0.5653" stop-color="#f4f5f5"/><stop offset="0.7316" stop-color="#e6e7e8"/><stop offset="0.876" stop-color="#d3d4d5"/><stop offset="1" stop-color="#bbbdbf"/></linearGradient><linearGradient id="linear-gradient-5" x1="-53.1342" y1="12.2035" x2="-38.2679" y2="12.2035" gradientTransform="matrix(-0.7199, -0.694, -0.694, 0.7199, 26.1364, -28.3005)" xlink:href="#linear-gradient-3"/><linearGradient id="linear-gradient-6" x1="-53.3506" y1="12.2035" x2="-38.0514" y2="12.2035" gradientTransform="matrix(-0.7199, -0.694, -0.694, 0.7199, 26.1364, -28.3005)" xlink:href="#linear-gradient-4"/><linearGradient id="linear-gradient-7" x1="-52.785" y1="12.2035" x2="-38.6169" y2="12.2035" gradientTransform="matrix(-0.0183, -0.9998, -0.9998, 0.0183, 61.933, -33.7133)" xlink:href="#linear-gradient-3"/><linearGradient id="linear-gradient-8" x1="-53.0015" y1="12.2035" x2="-38.4005" y2="12.2035" gradientTransform="matrix(-0.0183, -0.9998, -0.9998, 0.0183, 61.933, -33.7133)" xlink:href="#linear-gradient-4"/></defs><path class="cls-1" d="M51.43,22.5159a10.3141,10.3141,0,1,0,.3777-20.6248l-17.3657-.318a10.3141,10.3141,0,0,0-.3777,20.6248Z"/><path class="cls-2" d="M50.9989,21.91a9.7161,9.7161,0,1,0,.3559-19.429L34.8724,2.179a9.7161,9.7161,0,0,0-.3558,19.429Z"/><path class="cls-3" d="M51.44,21.9179a9.6018,9.6018,0,0,0,9.6369-9.5411A9.6018,9.6018,0,0,0,51.796,2.489L34.43,2.1709a9.602,9.602,0,0,0-9.6368,9.5413A9.6022,9.6022,0,0,0,34.0745,21.6Z"/><path class="cls-4" d="M50.43,19.7754a7.5729,7.5729,0,1,0-7.4332-7.7105A7.5824,7.5824,0,0,0,50.43,19.7754Z"/><circle class="cls-5" cx="50.5685" cy="12.2035" r="7.4331" transform="translate(5.6926 38.5143) rotate(-43.9507)"/><circle class="cls-6" cx="50.5684" cy="12.2035" r="7.084" transform="translate(37.4409 62.54) rotate(-88.9507)"/><text class="cls-7" transform="translate(26.5093 14.8037)"><tspan class="cls-8">o</tspan><tspan x="6.8911" y="0">n</tspan></text><text class="cls-9" transform="translate(0.6094 20.5342)">M</text><text class="cls-9" transform="translate(63.4307 20.167)">č<tspan class="cls-10" x="16.4902" y="0">y</tspan><tspan x="32.2793" y="0">tė</tspan></text></svg>