<svg id="Layer_1" data-name="Layer 1" xmlns="http://www.w3.org/2000/svg" xmlns:xlink="http://www.w3.org/1999/xlink" viewBox="0 0 122 23"><defs><style>.cls-1{fill:url(#linear-gradient);}.cls-2{fill:#231f20;}.cls-3{fill:url(#linear-gradient-2);}.cls-4,.cls-5,.cls-6{stroke-miterlimit:10;stroke-width:0.4329px;}.cls-4{fill:url(#linear-gradient-3);stroke:url(#linear-gradient-4);}.cls-5{fill:url(#linear-gradient-5);stroke:url(#linear-gradient-6);}.cls-6{fill:url(#linear-gradient-7);stroke:url(#linear-gradient-8);}.cls-7{fill:#fff;}</style><linearGradient id="linear-gradient" x1="54.7787" y1="0.6273" x2="31.0924" y2="23.4616" gradientUnits="userSpaceOnUse"><stop offset="0" stop-color="#868686"/><stop offset="0.1881" stop-color="#7f7f7f"/><stop offset="0.4524" stop-color="#6d6d6d"/><stop offset="0.7602" stop-color="#4f4f4f"/><stop offset="1" stop-color="#333"/></linearGradient><linearGradient id="linear-gradient-2" x1="61.1096" y1="10.4065" x2="24.8228" y2="10.4065" gradientTransform="matrix(1, -0.0005, -0.0005, 1.027, -0.026, 1.3781)" gradientUnits="userSpaceOnUse"><stop offset="0" stop-color="#333"/><stop offset="1" stop-color="#6e6e6e"/></linearGradient><linearGradient id="linear-gradient-3" x1="-53.2741" y1="12.2037" x2="-38.1279" y2="12.2037" gradientTransform="matrix(-1, 0, 0, 1, 4.8675, 0)" gradientUnits="userSpaceOnUse"><stop offset="0" stop-color="#a6a8ab"/><stop offset="0.0692" stop-color="#b8babc"/><stop offset="0.1941" stop-color="#d2d3d4"/><stop offset="0.3323" stop-color="#e6e6e7"/><stop offset="0.489" stop-color="#f4f4f5"/><stop offset="0.6796" stop-color="#fcfdfd"/><stop offset="1" stop-color="#fff"/></linearGradient><linearGradient id="linear-gradient-4" x1="-53.4905" y1="12.2037" x2="-37.9114" y2="12.2037" gradientTransform="matrix(-1, 0, 0, 1, 4.8675, 0)" gradientUnits="userSpaceOnUse"><stop offset="0" stop-color="#fff"/><stop offset="0.3602" stop-color="#fdfdfd"/><stop offset="0.5653" stop-color="#f4f5f5"/><stop offset="0.7316" stop-color="#e6e7e8"/><stop offset="0.876" stop-color="#d3d4d5"/><stop offset="1" stop-color="#bbbdbf"/></linearGradient><linearGradient id="linear-gradient-5" x1="-53.1342" y1="12.2035" x2="-38.2679" y2="12.2035" gradientTransform="matrix(-0.7199, -0.694, -0.694, 0.7199, 26.1364, -28.3005)" xlink:href="#linear-gradient-3"/><linearGradient id="linear-gradient-6" x1="-53.3506" y1="12.2035" x2="-38.0514" y2="12.2035" gradientTransform="matrix(-0.7199, -0.694, -0.694, 0.7199, 26.1364, -28.3005)" xlink:href="#linear-gradient-4"/><linearGradient id="linear-gradient-7" x1="-52.785" y1="12.2035" x2="-38.6169" y2="12.2035" gradientTransform="matrix(-0.0183, -0.9998, -0.9998, 0.0183, 61.933, -33.7133)" xlink:href="#linear-gradient-3"/><linearGradient id="linear-gradient-8" x1="-53.0015" y1="12.2035" x2="-38.4005" y2="12.2035" gradientTransform="matrix(-0.0183, -0.9998, -0.9998, 0.0183, 61.933, -33.7133)" xlink:href="#linear-gradient-4"/></defs><path class="cls-1" d="M51.43,22.5159a10.3141,10.3141,0,1,0,.3777-20.6248l-17.3657-.318a10.3141,10.3141,0,0,0-.3777,20.6248Z"/><path class="cls-2" d="M50.9989,21.91a9.7161,9.7161,0,1,0,.3559-19.429L34.8724,2.179a9.7161,9.7161,0,0,0-.3558,19.429Z"/><path class="cls-3" d="M51.44,21.9179a9.6018,9.6018,0,0,0,9.6369-9.5411A9.6018,9.6018,0,0,0,51.796,2.489L34.43,2.1709a9.602,9.602,0,0,0-9.6368,9.5413A9.6022,9.6022,0,0,0,34.0745,21.6Z"/><path class="cls-4" d="M50.43,19.7754a7.5729,7.5729,0,1,0-7.4332-7.7105A7.5824,7.5824,0,0,0,50.43,19.7754Z"/><circle class="cls-5" cx="50.5685" cy="12.2035" r="7.4331" transform="translate(5.6926 38.5143) rotate(-43.9507)"/><circle class="cls-6" cx="50.5684" cy="12.2035" r="7.084" transform="translate(37.4409 62.54) rotate(-88.9507)"/><path class="cls-7" d="M29.9771,9.3018a3.3984,3.3984,0,0,1,1.1787.2016,2.9274,2.9274,0,0,1,.9677.5777,2.67,2.67,0,0,1,.6494.8916,2.9132,2.9132,0,0,1,0,2.2851,2.6655,2.6655,0,0,1-.6494.8916,2.9352,2.9352,0,0,1-.9677.5781,3.3959,3.3959,0,0,1-1.1787.2012,3.3568,3.3568,0,0,1-1.1739-.2012,2.9463,2.9463,0,0,1-.9634-.5781,2.6682,2.6682,0,0,1-.6494-.8916,2.919,2.919,0,0,1,0-2.2851,2.6722,2.6722,0,0,1,.6494-.8916,2.9384,2.9384,0,0,1,.9634-.5777A3.3593,3.3593,0,0,1,29.9771,9.3018Zm0,5.3584a2.2916,2.2916,0,0,0,1.2011-.3223,2.3161,2.3161,0,0,0,.8511-.8965,2.971,2.971,0,0,0,0-2.6567,2.3255,2.3255,0,0,0-.8511-.8916,2.3781,2.3781,0,0,0-2.3926,0,2.3236,2.3236,0,0,0-.8515.8916,2.971,2.971,0,0,0,0,2.6567,2.3142,2.3142,0,0,0,.8515.8965A2.2734,2.2734,0,0,0,29.9771,14.66Z"/><path class="cls-7" d="M34.3862,14.248v.5557h-.6723v-.09h.1523a.4951.4951,0,0,0,.35-.1338.4371.4371,0,0,0,.1436-.3321Zm-.018-4.9555.3852.5019.0093,5.0093h-.4033V10.4126a9.547,9.547,0,0,0-.0806-1.12Zm0,0,4.9648,4.6782.0889.958L34.458,10.2246Zm.3945,4.9555a.4322.4322,0,0,0,.1475.3321.5.5,0,0,0,.3452.1338h.1523v.09h-.6719V14.248Zm4.2656-4.2656a.4706.4706,0,0,0-.1523-.3315.4946.4946,0,0,0-.35-.1343H38.374V9.4272h.6719v.5552Zm.3936-.5552v4.355c0,.1914.0058.375.0185.5508s.0323.375.0625.5957h-.081l-.3936-.4746V9.4272Zm-.0264.5552V9.4272h.6719v.0894H39.915a.4963.4963,0,0,0-.3447.1343.4312.4312,0,0,0-.1484.3315Z"/><path class="cls-7" d="M3.5566,18.8262v1.708H.96V20.3h.3741a1.7634,1.7634,0,0,0,1.1225-.3857,1.5839,1.5839,0,0,0,.585-1.0879ZM4.7964,3.833H5.03l.4677,1.38-1.38,15.3208H2.855ZM4.2349,19.2012v.1162a1.0414,1.0414,0,0,0,.269.69.8166.8166,0,0,0,.6431.3154h.351v.211H4.0713v-1.333ZM5.03,3.833l6.7363,14.5723-.5376,2.456L4.5859,6.4531Zm12.9116,0L18.1289,5.4,12.2578,18.4756q-.3509.7955-.5376,1.3447a5.7513,5.7513,0,0,0-.2573,1.041H11.229l-.3276-1.4736Zm.2808,15.3682h.1635v1.333H16.96v-.211h.351a.8074.8074,0,0,0,.6548-.3154,1.0687,1.0687,0,0,0,.2574-.69v-.1162Zm-.07-15.3682,2.0118,16.7012H18.3394L17.0532,6.3594l.8887-2.5264Zm1.31,14.9932h.4912a1.6706,1.6706,0,0,0,.6079,1.0879,1.7325,1.7325,0,0,0,1.1.3857h.3741v.2344H19.4624Z"/><path class="cls-7" d="M79.0088,14.2725l-.2568,3.205a5.8087,5.8087,0,0,1-1.5909,1.6133,7.6291,7.6291,0,0,1-2.2226,1.041,9.3007,9.3007,0,0,1-2.6192.3623,9.1283,9.1283,0,0,1-4.1054-.9121,6.2953,6.2953,0,0,1-2.6778-2.5263,7.7419,7.7419,0,0,1-.9355-3.9063A7.7933,7.7933,0,0,1,65.5361,9.22a6.3045,6.3045,0,0,1,2.6778-2.5264,8.932,8.932,0,0,1,4.1054-.8886,11.8663,11.8663,0,0,1,2.9239.374,8.8361,8.8361,0,0,1,2.55,1.0527l.5146,3.2979h-.2109a4.66,4.66,0,0,0-2.07-3.0874,7.1067,7.1067,0,0,0-3.73-.9356,6.09,6.09,0,0,0-3.1934.8072,5.3986,5.3986,0,0,0-2.081,2.292,7.8986,7.8986,0,0,0-.7373,3.5434,7.7814,7.7814,0,0,0,.7373,3.4971,5.3808,5.3808,0,0,0,2.0928,2.293,6.3225,6.3225,0,0,0,3.205.83,8.3805,8.3805,0,0,0,3.169-.5732,5.2289,5.2289,0,0,0,2.3047-1.7891,5.816,5.816,0,0,0,1.0058-3.1347ZM74.916,1.8521l-.1406-.1871L72.3193,3.2085,69.6758,1.665l-.14.1871,2.666,2.7836h.2344Z"/><path class="cls-7" d="M84.2246,7.606l-1.9883-.07a2.8335,2.8335,0,0,0-.9238-.854,2.42,2.42,0,0,0-1.2275-.3159h-.2813V6.1323h5.4268v.2339h-.28a.7729.7729,0,0,0-.7373.41A.8116.8116,0,0,0,84.2246,7.606Zm-.8183-1.45,4.3271,7.6958-.959.8183L81.3711,6.1558ZM86.6338,18.67V20.167h-1.707v-.2344h.28a1.306,1.306,0,0,0,.9473-.374,1.2793,1.2793,0,0,0,.4092-.8887Zm1.45-4.5381V20.167h-1.52V14.1318Zm3.93-7.976h1.4736L87.9209,14.623l-.8662-.2568Zm-4,12.5141h.07a1.283,1.283,0,0,0,.4092.8887,1.3082,1.3082,0,0,0,.9482.374h.28v.2344h-1.708Zm3.1113-11.04a.826.826,0,0,0,.0234-.8652.8032.8032,0,0,0-.748-.398h-.2813V6.1323h4.8887v.2339h-.28a2.2557,2.2557,0,0,0-1.2285.3628,3.1085,3.1085,0,0,0-.9.8306Z"/><path class="cls-7" d="M96.0605,5.7349a6.5574,6.5574,0,0,0,.6436.1635,9.3989,9.3989,0,0,0,.9707.1524,9.32,9.32,0,0,0,1.0059.0581l-2.62.2344Zm12.8418.374V6.811H96.0605V6.1089Zm-11.415.6553V6.811a1.1879,1.1879,0,0,0-.8535.3623,1.1757,1.1757,0,0,0-.3154.8306v.374h-.2579V6.7642ZM101.7686,18.67V20.167h-1.7081v-.2344h.2813a1.348,1.348,0,0,0,.959-.374,1.2648,1.2648,0,0,0,.4209-.8887Zm1.4736-12.4673V20.167h-1.52V6.2026Zm-.07,12.4673h.07a1.2569,1.2569,0,0,0,.4209.8887,1.3462,1.3462,0,0,0,.959.374h.2568v.2344h-1.707Zm5.73-12.935v.6084l-2.62-.2344a9.0042,9.0042,0,0,0,.9942-.0581q.5273-.0586.9707-.1524A6.3974,6.3974,0,0,0,108.9023,5.7349Zm0,1.0293V8.3779h-.2568v-.374a1.1726,1.1726,0,0,0-.3164-.8306,1.1863,1.1863,0,0,0-.8535-.3623V6.7642Z"/><path class="cls-7" d="M112.2471,7.606H112.2a1.2461,1.2461,0,0,0-.3975-.8887,1.3472,1.3472,0,0,0-.9589-.3511h-.3282V6.1323h2.0352Zm0,11.0639.3037,1.4971h-2.0352v-.2344h.3282A1.32,1.32,0,0,0,112.2,18.67Zm1.45-12.5376V20.167H112.2V6.1323Zm6.2685,0v.7251H113.65V6.1323ZM118.89,12.7988v.7022H113.65v-.7022Zm1.1,6.6426-.0469.7256H113.65v-.7256Zm-3.836-14.8291a.9979.9979,0,0,1-1.0058-1.0059.98.98,0,0,1,.292-.7016.9885.9885,0,0,1,1.4267,0,.9812.9812,0,0,1,.293.7016,1,1,0,0,1-1.0059,1.0059Zm5.1455,12.21-1.2861,3.3447H116.457l.7959-.7256a4.4174,4.4174,0,0,0,1.8828-.3389,3.0373,3.0373,0,0,0,1.1573-.9355,6.7957,6.7957,0,0,0,.7724-1.3447Zm-1.333-11.064v.6079l-2.667-.2339a9.9528,9.9528,0,0,0,1.544-.1284A6.3557,6.3557,0,0,0,119.9658,5.7583ZM118.89,11.5122v1.3335h-1.2158v-.0469a.8711.8711,0,0,0,.7246-.292,1.07,1.07,0,0,0,.2344-.69v-.3042Zm0,1.9419v1.333h-.2568v-.3037a1.07,1.07,0,0,0-.2344-.69.8737.8737,0,0,0-.7246-.292v-.0469Zm1.0762-6.6665V8.4014h-.2568V8.0508a1.2143,1.2143,0,0,0-.3164-.8423,1.0905,1.0905,0,0,0-.8535-.3511v-.07Z"/></svg>